<?xml version="1.0" encoding="utf-8"?>
<!-- Generator: Adobe Illustrator 28.0.0, SVG Export Plug-In . SVG Version: 6.00 Build 0)  -->
<svg version="1.1" id="图层_1" xmlns="http://www.w3.org/2000/svg" xmlns:xlink="http://www.w3.org/1999/xlink" x="0px" y="0px"
	 viewBox="0 0 128 128" style="enable-background:new 0 0 128 128;" xml:space="preserve">
<style type="text/css">
	.st0{clip-path:url(#SVGID_00000008144864701031347500000014861729577893690526_);}
	.st1{clip-path:url(#SVGID_00000030479050995538792820000000405475269304243364_);}
	.st2{clip-path:url(#SVGID_00000154401794561553060550000014126771746760658089_);}
	.st3{clip-path:url(#SVGID_00000119814111076858130430000017193787849305744302_);fill:#FFFFFF;}
</style>
<g>
	<g>
		<defs>
			<rect id="SVGID_1_" width="128" height="128"/>
		</defs>
		<clipPath id="SVGID_00000098218362480263227080000011399606348094728353_">
			<use xlink:href="#SVGID_1_"  style="overflow:visible;"/>
		</clipPath>
		<g style="clip-path:url(#SVGID_00000098218362480263227080000011399606348094728353_);">
			<defs>
				<path id="SVGID_00000074422331469320697850000006469072450673833893_" d="M14.27,0C10.81,0,8,2.8,8,6.26v115.47
					c0,2.26,1.22,4.35,3.2,5.46c1.98,1.11,4.4,1.07,6.34-0.11L64.47,98.5l46.93,28.59c1.94,1.18,4.36,1.22,6.34,0.11
					c1.98-1.11,3.2-3.2,3.2-5.46V6.26c0-3.46-2.81-6.26-6.27-6.26H14.27z"/>
			</defs>
			<clipPath id="SVGID_00000076585447725223101050000008101973029826692243_">
				<use xlink:href="#SVGID_00000074422331469320697850000006469072450673833893_"  style="overflow:visible;"/>
			</clipPath>
			
				<rect x="7" y="-1" style="clip-path:url(#SVGID_00000076585447725223101050000008101973029826692243_);" width="114.94" height="130"/>
		</g>
	</g>
	<g>
		<defs>
			<rect id="SVGID_00000102519365728551457360000003680728043846377898_" width="128" height="128"/>
		</defs>
		<clipPath id="SVGID_00000064327113458031542420000003161865600184195767_">
			<use xlink:href="#SVGID_00000102519365728551457360000003680728043846377898_"  style="overflow:visible;"/>
		</clipPath>
		<g style="clip-path:url(#SVGID_00000064327113458031542420000003161865600184195767_);">
			<defs>
				<path id="SVGID_00000139258741694983151480000003916023374962939825_" d="M83.67,19.66c3.22,0.83,5.84,1.75,7.87,2.74
					c2.03,1,3.05,1.49,3.05,1.49l-1.42,3.13c-0.79,1.57-2.03,2.66-3.72,3.27c-1.69,0.6-3.43,0.6-5.22,0
					c-1.16-0.42-2.24-0.74-3.24-0.97c-2.22-0.56-4.83-0.83-7.83-0.83c-3.22,0-6.2,0.49-8.94,1.46c-2.74,0.97-5.17,2.36-7.28,4.17
					c-2.16,1.76-3.93,3.91-5.3,6.46c-1.42,2.5-2.37,5.26-2.85,8.27c-0.53,3.33-0.5,6.28,0.08,8.82c0.63,2.55,1.71,4.68,3.24,6.39
					c1.53,1.71,3.51,2.99,5.94,3.82c2.43,0.88,5.17,1.32,8.23,1.32c1.48,0,2.98-0.14,4.51-0.42c1.53-0.32,2.98-0.79,4.35-1.39
					l2.69-13.48H65.23l1.27-5.28c0.26-1.07,0.88-1.95,1.86-2.64c0.98-0.69,2.1-1.04,3.36-1.04h17.33c0.53,0,1,0.07,1.42,0.21
					c0.42,0.19,0.77,0.44,1.03,0.76c0.26,0.32,0.45,0.72,0.55,1.18c0.11,0.46,0.11,1,0,1.6l-4.51,25.98c0,0-0.3,0.1-0.91,0.31
					c-0.61,0.21-1.38,0.46-2.33,0.76c-0.95,0.3-1.93,0.61-2.93,0.94c-0.9,0.28-1.97,0.56-3.21,0.83c-1.24,0.28-2.36,0.49-3.36,0.63
					c-1.79,0.32-3.59,0.56-5.38,0.69c-1.85,0.14-3.67,0.21-5.46,0.21c-5.33,0-9.97-0.67-13.93-2.01c-3.96-1.34-7.2-3.27-9.73-5.77
					c-2.48-2.55-4.19-5.65-5.14-9.31c-0.95-3.66-1.06-7.8-0.32-12.44c0.74-4.77,2.24-9.05,4.51-12.85c2.22-3.8,5.06-7.02,8.55-9.66
					c3.11-2.41,6.67-4.31,10.68-5.7c0.11-0.05,0.18-0.07,0.24-0.07c0.32-0.14,0.63-0.25,0.95-0.35c3.69-1.39,8.15-2.08,13.37-2.08
					c1.48,0,3.22,0.06,5.22,0.17C80.37,19.11,82.14,19.33,83.67,19.66z"/>
			</defs>
			<clipPath id="SVGID_00000023266088465449477320000002909825161667914932_">
				<use xlink:href="#SVGID_00000139258741694983151480000003916023374962939825_"  style="overflow:visible;"/>
			</clipPath>
			
				<rect x="33.1" y="17.82" style="clip-path:url(#SVGID_00000023266088465449477320000002909825161667914932_);fill:#FFFFFF;" width="62.49" height="62.24"/>
		</g>
	</g>
</g>
</svg>
